<mxfile host="app.diagrams.net" modified="2023-11-23T20:43:26.446Z" agent="Mozilla/5.0 (Windows NT 10.0; Win64; x64) AppleWebKit/537.36 (KHTML, like Gecko) Chrome/119.0.0.0 Safari/537.36 Edg/119.0.0.0" etag="v3TylK-LxGS_TuPms1r4" version="22.1.3" type="github">
  <diagram name="Page-1" id="JzcI4ioeYs1S4CzdCNhv">
    <mxGraphModel dx="2510" dy="1011" grid="1" gridSize="10" guides="1" tooltips="1" connect="1" arrows="1" fold="1" page="1" pageScale="1" pageWidth="1100" pageHeight="850" math="0" shadow="0">
      <root>
        <mxCell id="0" />
        <mxCell id="1" parent="0" />
        <mxCell id="jTnxG4hsWh08YRe22Vm3-131" value="&lt;font style=&quot;font-size: 16px;&quot;&gt;Pg. 30 à 33&lt;/font&gt;" style="edgeStyle=orthogonalEdgeStyle;rounded=0;orthogonalLoop=1;jettySize=auto;html=1;exitX=0;exitY=0.5;exitDx=0;exitDy=0;entryX=1;entryY=0.5;entryDx=0;entryDy=0;" edge="1" parent="1" source="jTnxG4hsWh08YRe22Vm3-123" target="jTnxG4hsWh08YRe22Vm3-122">
          <mxGeometry relative="1" as="geometry" />
        </mxCell>
        <mxCell id="jTnxG4hsWh08YRe22Vm3-123" value="" style="rounded=1;whiteSpace=wrap;html=1;fillColor=#dae8fc;strokeColor=#6c8ebf;" vertex="1" parent="1">
          <mxGeometry x="990" y="877" width="330" height="583" as="geometry" />
        </mxCell>
        <mxCell id="jTnxG4hsWh08YRe22Vm3-132" value="&lt;font style=&quot;font-size: 16px;&quot;&gt;Pg. 43 à 51&lt;/font&gt;" style="edgeStyle=orthogonalEdgeStyle;rounded=0;orthogonalLoop=1;jettySize=auto;html=1;exitX=0;exitY=0.5;exitDx=0;exitDy=0;entryX=1;entryY=0.5;entryDx=0;entryDy=0;" edge="1" parent="1" source="jTnxG4hsWh08YRe22Vm3-122" target="jTnxG4hsWh08YRe22Vm3-117">
          <mxGeometry relative="1" as="geometry" />
        </mxCell>
        <mxCell id="jTnxG4hsWh08YRe22Vm3-122" value="" style="rounded=1;whiteSpace=wrap;html=1;fillColor=#dae8fc;strokeColor=#6c8ebf;" vertex="1" parent="1">
          <mxGeometry x="510" y="877" width="330" height="583" as="geometry" />
        </mxCell>
        <mxCell id="jTnxG4hsWh08YRe22Vm3-134" value="" style="edgeStyle=orthogonalEdgeStyle;rounded=0;orthogonalLoop=1;jettySize=auto;html=1;" edge="1" parent="1" source="jTnxG4hsWh08YRe22Vm3-117" target="jTnxG4hsWh08YRe22Vm3-133">
          <mxGeometry relative="1" as="geometry" />
        </mxCell>
        <mxCell id="jTnxG4hsWh08YRe22Vm3-117" value="" style="rounded=1;whiteSpace=wrap;html=1;fillColor=#dae8fc;strokeColor=#6c8ebf;" vertex="1" parent="1">
          <mxGeometry x="30" y="877" width="330" height="583" as="geometry" />
        </mxCell>
        <mxCell id="jTnxG4hsWh08YRe22Vm3-1" value="&lt;font style=&quot;font-size: 18px;&quot;&gt;Início&lt;/font&gt;" style="ellipse;whiteSpace=wrap;html=1;fillColor=#d5e8d4;strokeColor=#82b366;" vertex="1" parent="1">
          <mxGeometry x="615" y="30" width="120" height="50" as="geometry" />
        </mxCell>
        <mxCell id="jTnxG4hsWh08YRe22Vm3-10" value="" style="edgeStyle=orthogonalEdgeStyle;rounded=0;orthogonalLoop=1;jettySize=auto;html=1;entryX=0.5;entryY=0;entryDx=0;entryDy=0;exitX=0.5;exitY=1;exitDx=0;exitDy=0;" edge="1" parent="1" source="jTnxG4hsWh08YRe22Vm3-1" target="jTnxG4hsWh08YRe22Vm3-2">
          <mxGeometry relative="1" as="geometry">
            <mxPoint x="668" y="120" as="sourcePoint" />
            <mxPoint x="725" y="255" as="targetPoint" />
          </mxGeometry>
        </mxCell>
        <mxCell id="jTnxG4hsWh08YRe22Vm3-21" value="&lt;font style=&quot;font-size: 14px;&quot;&gt;Pg. 1 à 2&lt;/font&gt;" style="edgeStyle=orthogonalEdgeStyle;rounded=0;orthogonalLoop=1;jettySize=auto;html=1;" edge="1" parent="1" source="jTnxG4hsWh08YRe22Vm3-2" target="jTnxG4hsWh08YRe22Vm3-19">
          <mxGeometry relative="1" as="geometry" />
        </mxCell>
        <mxCell id="jTnxG4hsWh08YRe22Vm3-2" value="" style="rounded=1;whiteSpace=wrap;html=1;fillColor=#e1d5e7;strokeColor=#9673a6;" vertex="1" parent="1">
          <mxGeometry x="405" y="120" width="540" height="120" as="geometry" />
        </mxCell>
        <mxCell id="jTnxG4hsWh08YRe22Vm3-3" value="&lt;font style=&quot;font-size: 20px;&quot;&gt;&lt;b&gt;Termo de Aceite&lt;/b&gt;&lt;/font&gt;" style="rounded=0;whiteSpace=wrap;html=1;" vertex="1" parent="1">
          <mxGeometry x="465" y="170" width="160" height="50" as="geometry" />
        </mxCell>
        <mxCell id="jTnxG4hsWh08YRe22Vm3-4" value="&lt;font style=&quot;font-size: 20px;&quot;&gt;&lt;b&gt;Dados Pessoais&lt;/b&gt;&lt;/font&gt;" style="rounded=0;whiteSpace=wrap;html=1;" vertex="1" parent="1">
          <mxGeometry x="715" y="170" width="160" height="50" as="geometry" />
        </mxCell>
        <mxCell id="jTnxG4hsWh08YRe22Vm3-7" value="" style="edgeStyle=orthogonalEdgeStyle;rounded=0;orthogonalLoop=1;jettySize=auto;html=1;" edge="1" parent="1" source="jTnxG4hsWh08YRe22Vm3-3" target="jTnxG4hsWh08YRe22Vm3-4">
          <mxGeometry relative="1" as="geometry" />
        </mxCell>
        <mxCell id="jTnxG4hsWh08YRe22Vm3-6" value="&lt;font style=&quot;font-size: 17px;&quot;&gt;Questões Adicionadas&lt;/font&gt;" style="text;html=1;strokeColor=none;fillColor=none;align=center;verticalAlign=middle;whiteSpace=wrap;rounded=0;" vertex="1" parent="1">
          <mxGeometry x="555" y="130" width="240" height="30" as="geometry" />
        </mxCell>
        <mxCell id="jTnxG4hsWh08YRe22Vm3-125" value="&lt;font style=&quot;font-size: 16px;&quot;&gt;Pg. 3 à 29&lt;/font&gt;" style="edgeStyle=orthogonalEdgeStyle;rounded=0;orthogonalLoop=1;jettySize=auto;html=1;exitX=1;exitY=0.5;exitDx=0;exitDy=0;entryX=1;entryY=0.5;entryDx=0;entryDy=0;" edge="1" parent="1" source="jTnxG4hsWh08YRe22Vm3-19" target="jTnxG4hsWh08YRe22Vm3-123">
          <mxGeometry relative="1" as="geometry" />
        </mxCell>
        <mxCell id="jTnxG4hsWh08YRe22Vm3-19" value="" style="rounded=1;whiteSpace=wrap;html=1;fillColor=#dae8fc;strokeColor=#6c8ebf;" vertex="1" parent="1">
          <mxGeometry x="30" y="320" width="1290" height="480" as="geometry" />
        </mxCell>
        <mxCell id="jTnxG4hsWh08YRe22Vm3-34" style="edgeStyle=orthogonalEdgeStyle;rounded=0;orthogonalLoop=1;jettySize=auto;html=1;exitX=0.5;exitY=1;exitDx=0;exitDy=0;entryX=0.5;entryY=0;entryDx=0;entryDy=0;" edge="1" parent="1" source="jTnxG4hsWh08YRe22Vm3-22" target="jTnxG4hsWh08YRe22Vm3-23">
          <mxGeometry relative="1" as="geometry" />
        </mxCell>
        <mxCell id="jTnxG4hsWh08YRe22Vm3-22" value="&lt;font size=&quot;1&quot; style=&quot;&quot;&gt;&lt;b style=&quot;font-size: 18px;&quot;&gt;DemandasQuantitativas&lt;/b&gt;&lt;/font&gt;" style="rounded=0;whiteSpace=wrap;html=1;" vertex="1" parent="1">
          <mxGeometry x="52.5" y="351" width="280" height="40" as="geometry" />
        </mxCell>
        <mxCell id="jTnxG4hsWh08YRe22Vm3-35" style="edgeStyle=orthogonalEdgeStyle;rounded=0;orthogonalLoop=1;jettySize=auto;html=1;exitX=0.5;exitY=1;exitDx=0;exitDy=0;entryX=0.5;entryY=0;entryDx=0;entryDy=0;" edge="1" parent="1" source="jTnxG4hsWh08YRe22Vm3-23" target="jTnxG4hsWh08YRe22Vm3-26">
          <mxGeometry relative="1" as="geometry" />
        </mxCell>
        <mxCell id="jTnxG4hsWh08YRe22Vm3-23" value="&lt;font size=&quot;1&quot; style=&quot;&quot;&gt;&lt;b style=&quot;font-size: 18px;&quot;&gt;RitmoDeTarefas&lt;/b&gt;&lt;/font&gt;" style="rounded=0;whiteSpace=wrap;html=1;" vertex="1" parent="1">
          <mxGeometry x="52.5" y="413" width="280" height="40" as="geometry" />
        </mxCell>
        <mxCell id="jTnxG4hsWh08YRe22Vm3-37" style="edgeStyle=orthogonalEdgeStyle;rounded=0;orthogonalLoop=1;jettySize=auto;html=1;exitX=0.5;exitY=1;exitDx=0;exitDy=0;" edge="1" parent="1" source="jTnxG4hsWh08YRe22Vm3-26" target="jTnxG4hsWh08YRe22Vm3-27">
          <mxGeometry relative="1" as="geometry" />
        </mxCell>
        <mxCell id="jTnxG4hsWh08YRe22Vm3-26" value="&lt;font size=&quot;1&quot; style=&quot;&quot;&gt;&lt;b style=&quot;font-size: 18px;&quot;&gt;DemandasCognitivas&lt;/b&gt;&lt;/font&gt;" style="rounded=0;whiteSpace=wrap;html=1;" vertex="1" parent="1">
          <mxGeometry x="52.5" y="477" width="280" height="40" as="geometry" />
        </mxCell>
        <mxCell id="jTnxG4hsWh08YRe22Vm3-38" style="edgeStyle=orthogonalEdgeStyle;rounded=0;orthogonalLoop=1;jettySize=auto;html=1;exitX=0.5;exitY=1;exitDx=0;exitDy=0;entryX=0.5;entryY=0;entryDx=0;entryDy=0;" edge="1" parent="1" source="jTnxG4hsWh08YRe22Vm3-27" target="jTnxG4hsWh08YRe22Vm3-30">
          <mxGeometry relative="1" as="geometry" />
        </mxCell>
        <mxCell id="jTnxG4hsWh08YRe22Vm3-27" value="&lt;b style=&quot;&quot;&gt;&lt;font style=&quot;font-size: 18px;&quot;&gt;ExigenciasEmocionais&lt;/font&gt;&lt;/b&gt;" style="rounded=0;whiteSpace=wrap;html=1;" vertex="1" parent="1">
          <mxGeometry x="52.5" y="539" width="280" height="40" as="geometry" />
        </mxCell>
        <mxCell id="jTnxG4hsWh08YRe22Vm3-39" style="edgeStyle=orthogonalEdgeStyle;rounded=0;orthogonalLoop=1;jettySize=auto;html=1;exitX=0.5;exitY=1;exitDx=0;exitDy=0;entryX=0.5;entryY=0;entryDx=0;entryDy=0;" edge="1" parent="1" source="jTnxG4hsWh08YRe22Vm3-30" target="jTnxG4hsWh08YRe22Vm3-31">
          <mxGeometry relative="1" as="geometry" />
        </mxCell>
        <mxCell id="jTnxG4hsWh08YRe22Vm3-30" value="&lt;b style=&quot;&quot;&gt;&lt;font style=&quot;font-size: 18px;&quot;&gt;ExigenciasEsconderEmocoes&lt;/font&gt;&lt;/b&gt;" style="rounded=0;whiteSpace=wrap;html=1;" vertex="1" parent="1">
          <mxGeometry x="52.5" y="601" width="280" height="40" as="geometry" />
        </mxCell>
        <mxCell id="jTnxG4hsWh08YRe22Vm3-40" style="edgeStyle=orthogonalEdgeStyle;rounded=0;orthogonalLoop=1;jettySize=auto;html=1;exitX=0.5;exitY=1;exitDx=0;exitDy=0;" edge="1" parent="1" source="jTnxG4hsWh08YRe22Vm3-31" target="jTnxG4hsWh08YRe22Vm3-32">
          <mxGeometry relative="1" as="geometry" />
        </mxCell>
        <mxCell id="jTnxG4hsWh08YRe22Vm3-31" value="&lt;b style=&quot;&quot;&gt;&lt;font style=&quot;font-size: 18px;&quot;&gt;InfluenciaNaFaculdade&lt;/font&gt;&lt;/b&gt;" style="rounded=0;whiteSpace=wrap;html=1;" vertex="1" parent="1">
          <mxGeometry x="52.5" y="663" width="280" height="40" as="geometry" />
        </mxCell>
        <mxCell id="jTnxG4hsWh08YRe22Vm3-54" style="edgeStyle=orthogonalEdgeStyle;rounded=0;orthogonalLoop=1;jettySize=auto;html=1;exitX=1;exitY=0.5;exitDx=0;exitDy=0;entryX=0;entryY=0.5;entryDx=0;entryDy=0;" edge="1" parent="1" source="jTnxG4hsWh08YRe22Vm3-32" target="jTnxG4hsWh08YRe22Vm3-42">
          <mxGeometry relative="1" as="geometry" />
        </mxCell>
        <mxCell id="jTnxG4hsWh08YRe22Vm3-32" value="&lt;b style=&quot;&quot;&gt;&lt;font style=&quot;font-size: 17px;&quot;&gt;PossibilidadesDesenvolvimento&lt;/font&gt;&lt;/b&gt;" style="rounded=0;whiteSpace=wrap;html=1;" vertex="1" parent="1">
          <mxGeometry x="52.5" y="727" width="280" height="40" as="geometry" />
        </mxCell>
        <mxCell id="jTnxG4hsWh08YRe22Vm3-41" style="edgeStyle=orthogonalEdgeStyle;rounded=0;orthogonalLoop=1;jettySize=auto;html=1;exitX=0.5;exitY=1;exitDx=0;exitDy=0;entryX=0.5;entryY=0;entryDx=0;entryDy=0;" edge="1" parent="1" source="jTnxG4hsWh08YRe22Vm3-42" target="jTnxG4hsWh08YRe22Vm3-44">
          <mxGeometry relative="1" as="geometry" />
        </mxCell>
        <mxCell id="jTnxG4hsWh08YRe22Vm3-42" value="&lt;font size=&quot;1&quot; style=&quot;&quot;&gt;&lt;b style=&quot;font-size: 18px;&quot;&gt;VariacaoDeTrabalhos&lt;/b&gt;&lt;/font&gt;" style="rounded=0;whiteSpace=wrap;html=1;" vertex="1" parent="1">
          <mxGeometry x="372.5" y="353" width="280" height="40" as="geometry" />
        </mxCell>
        <mxCell id="jTnxG4hsWh08YRe22Vm3-43" style="edgeStyle=orthogonalEdgeStyle;rounded=0;orthogonalLoop=1;jettySize=auto;html=1;exitX=0.5;exitY=1;exitDx=0;exitDy=0;entryX=0.5;entryY=0;entryDx=0;entryDy=0;" edge="1" parent="1" source="jTnxG4hsWh08YRe22Vm3-44" target="jTnxG4hsWh08YRe22Vm3-46">
          <mxGeometry relative="1" as="geometry" />
        </mxCell>
        <mxCell id="jTnxG4hsWh08YRe22Vm3-44" value="&lt;font size=&quot;1&quot; style=&quot;&quot;&gt;&lt;b style=&quot;font-size: 18px;&quot;&gt;ControleTempoTrabalho&lt;/b&gt;&lt;/font&gt;" style="rounded=0;whiteSpace=wrap;html=1;" vertex="1" parent="1">
          <mxGeometry x="372.5" y="415" width="280" height="40" as="geometry" />
        </mxCell>
        <mxCell id="jTnxG4hsWh08YRe22Vm3-45" style="edgeStyle=orthogonalEdgeStyle;rounded=0;orthogonalLoop=1;jettySize=auto;html=1;exitX=0.5;exitY=1;exitDx=0;exitDy=0;" edge="1" parent="1" source="jTnxG4hsWh08YRe22Vm3-46" target="jTnxG4hsWh08YRe22Vm3-48">
          <mxGeometry relative="1" as="geometry" />
        </mxCell>
        <mxCell id="jTnxG4hsWh08YRe22Vm3-46" value="&lt;font size=&quot;1&quot; style=&quot;&quot;&gt;&lt;b style=&quot;font-size: 18px;&quot;&gt;SignificadoDoCurso&lt;/b&gt;&lt;/font&gt;" style="rounded=0;whiteSpace=wrap;html=1;" vertex="1" parent="1">
          <mxGeometry x="372.5" y="479" width="280" height="40" as="geometry" />
        </mxCell>
        <mxCell id="jTnxG4hsWh08YRe22Vm3-47" style="edgeStyle=orthogonalEdgeStyle;rounded=0;orthogonalLoop=1;jettySize=auto;html=1;exitX=0.5;exitY=1;exitDx=0;exitDy=0;entryX=0.5;entryY=0;entryDx=0;entryDy=0;" edge="1" parent="1" source="jTnxG4hsWh08YRe22Vm3-48" target="jTnxG4hsWh08YRe22Vm3-50">
          <mxGeometry relative="1" as="geometry" />
        </mxCell>
        <mxCell id="jTnxG4hsWh08YRe22Vm3-48" value="&lt;b style=&quot;&quot;&gt;&lt;font style=&quot;font-size: 18px;&quot;&gt;Previsibilidade&lt;/font&gt;&lt;/b&gt;" style="rounded=0;whiteSpace=wrap;html=1;" vertex="1" parent="1">
          <mxGeometry x="372.5" y="541" width="280" height="40" as="geometry" />
        </mxCell>
        <mxCell id="jTnxG4hsWh08YRe22Vm3-49" style="edgeStyle=orthogonalEdgeStyle;rounded=0;orthogonalLoop=1;jettySize=auto;html=1;exitX=0.5;exitY=1;exitDx=0;exitDy=0;entryX=0.5;entryY=0;entryDx=0;entryDy=0;" edge="1" parent="1" source="jTnxG4hsWh08YRe22Vm3-50" target="jTnxG4hsWh08YRe22Vm3-52">
          <mxGeometry relative="1" as="geometry" />
        </mxCell>
        <mxCell id="jTnxG4hsWh08YRe22Vm3-50" value="&lt;b style=&quot;&quot;&gt;&lt;font style=&quot;font-size: 18px;&quot;&gt;Reconhecimento&lt;/font&gt;&lt;/b&gt;" style="rounded=0;whiteSpace=wrap;html=1;" vertex="1" parent="1">
          <mxGeometry x="372.5" y="603" width="280" height="40" as="geometry" />
        </mxCell>
        <mxCell id="jTnxG4hsWh08YRe22Vm3-51" style="edgeStyle=orthogonalEdgeStyle;rounded=0;orthogonalLoop=1;jettySize=auto;html=1;exitX=0.5;exitY=1;exitDx=0;exitDy=0;" edge="1" parent="1" source="jTnxG4hsWh08YRe22Vm3-52" target="jTnxG4hsWh08YRe22Vm3-53">
          <mxGeometry relative="1" as="geometry" />
        </mxCell>
        <mxCell id="jTnxG4hsWh08YRe22Vm3-52" value="&lt;b style=&quot;&quot;&gt;&lt;font style=&quot;font-size: 18px;&quot;&gt;ClarezaDoCurso&lt;/font&gt;&lt;/b&gt;" style="rounded=0;whiteSpace=wrap;html=1;" vertex="1" parent="1">
          <mxGeometry x="372.5" y="665" width="280" height="40" as="geometry" />
        </mxCell>
        <mxCell id="jTnxG4hsWh08YRe22Vm3-79" style="edgeStyle=orthogonalEdgeStyle;rounded=0;orthogonalLoop=1;jettySize=auto;html=1;exitX=1;exitY=0.5;exitDx=0;exitDy=0;entryX=0;entryY=0.5;entryDx=0;entryDy=0;" edge="1" parent="1" source="jTnxG4hsWh08YRe22Vm3-53" target="jTnxG4hsWh08YRe22Vm3-56">
          <mxGeometry relative="1" as="geometry" />
        </mxCell>
        <mxCell id="jTnxG4hsWh08YRe22Vm3-53" value="&lt;b style=&quot;&quot;&gt;&lt;font style=&quot;font-size: 18px;&quot;&gt;ConflitosDeFuncao&lt;/font&gt;&lt;/b&gt;" style="rounded=0;whiteSpace=wrap;html=1;" vertex="1" parent="1">
          <mxGeometry x="372.5" y="729" width="280" height="40" as="geometry" />
        </mxCell>
        <mxCell id="jTnxG4hsWh08YRe22Vm3-55" style="edgeStyle=orthogonalEdgeStyle;rounded=0;orthogonalLoop=1;jettySize=auto;html=1;exitX=0.5;exitY=1;exitDx=0;exitDy=0;entryX=0.5;entryY=0;entryDx=0;entryDy=0;" edge="1" parent="1" source="jTnxG4hsWh08YRe22Vm3-56" target="jTnxG4hsWh08YRe22Vm3-58">
          <mxGeometry relative="1" as="geometry" />
        </mxCell>
        <mxCell id="jTnxG4hsWh08YRe22Vm3-56" value="&lt;font size=&quot;1&quot; style=&quot;&quot;&gt;&lt;b style=&quot;font-size: 18px;&quot;&gt;TarefasIlegitimas&lt;/b&gt;&lt;/font&gt;" style="rounded=0;whiteSpace=wrap;html=1;" vertex="1" parent="1">
          <mxGeometry x="692.5" y="353" width="280" height="40" as="geometry" />
        </mxCell>
        <mxCell id="jTnxG4hsWh08YRe22Vm3-57" style="edgeStyle=orthogonalEdgeStyle;rounded=0;orthogonalLoop=1;jettySize=auto;html=1;exitX=0.5;exitY=1;exitDx=0;exitDy=0;entryX=0.5;entryY=0;entryDx=0;entryDy=0;" edge="1" parent="1" source="jTnxG4hsWh08YRe22Vm3-58" target="jTnxG4hsWh08YRe22Vm3-60">
          <mxGeometry relative="1" as="geometry" />
        </mxCell>
        <mxCell id="jTnxG4hsWh08YRe22Vm3-58" value="&lt;font size=&quot;1&quot; style=&quot;&quot;&gt;&lt;b style=&quot;font-size: 18px;&quot;&gt;QualidadeLideranca&lt;/b&gt;&lt;/font&gt;" style="rounded=0;whiteSpace=wrap;html=1;" vertex="1" parent="1">
          <mxGeometry x="692.5" y="437" width="280" height="40" as="geometry" />
        </mxCell>
        <mxCell id="jTnxG4hsWh08YRe22Vm3-59" style="edgeStyle=orthogonalEdgeStyle;rounded=0;orthogonalLoop=1;jettySize=auto;html=1;exitX=0.5;exitY=1;exitDx=0;exitDy=0;" edge="1" parent="1" source="jTnxG4hsWh08YRe22Vm3-60" target="jTnxG4hsWh08YRe22Vm3-62">
          <mxGeometry relative="1" as="geometry" />
        </mxCell>
        <mxCell id="jTnxG4hsWh08YRe22Vm3-60" value="&lt;font size=&quot;1&quot; style=&quot;&quot;&gt;&lt;b style=&quot;font-size: 18px;&quot;&gt;ApoioSocialProfessor&lt;/b&gt;&lt;/font&gt;" style="rounded=0;whiteSpace=wrap;html=1;" vertex="1" parent="1">
          <mxGeometry x="692.5" y="510" width="280" height="40" as="geometry" />
        </mxCell>
        <mxCell id="jTnxG4hsWh08YRe22Vm3-61" style="edgeStyle=orthogonalEdgeStyle;rounded=0;orthogonalLoop=1;jettySize=auto;html=1;exitX=0.5;exitY=1;exitDx=0;exitDy=0;entryX=0.5;entryY=0;entryDx=0;entryDy=0;" edge="1" parent="1" source="jTnxG4hsWh08YRe22Vm3-62" target="jTnxG4hsWh08YRe22Vm3-64">
          <mxGeometry relative="1" as="geometry" />
        </mxCell>
        <mxCell id="jTnxG4hsWh08YRe22Vm3-62" value="&lt;b style=&quot;&quot;&gt;&lt;font style=&quot;font-size: 18px;&quot;&gt;ApoioSocialColegas&lt;/font&gt;&lt;/b&gt;" style="rounded=0;whiteSpace=wrap;html=1;" vertex="1" parent="1">
          <mxGeometry x="692.5" y="579" width="280" height="40" as="geometry" />
        </mxCell>
        <mxCell id="jTnxG4hsWh08YRe22Vm3-63" style="edgeStyle=orthogonalEdgeStyle;rounded=0;orthogonalLoop=1;jettySize=auto;html=1;exitX=0.5;exitY=1;exitDx=0;exitDy=0;entryX=0.5;entryY=0;entryDx=0;entryDy=0;" edge="1" parent="1" source="jTnxG4hsWh08YRe22Vm3-64" target="jTnxG4hsWh08YRe22Vm3-66">
          <mxGeometry relative="1" as="geometry" />
        </mxCell>
        <mxCell id="jTnxG4hsWh08YRe22Vm3-64" value="&lt;b style=&quot;&quot;&gt;&lt;font style=&quot;font-size: 18px;&quot;&gt;SensoComunidade&lt;/font&gt;&lt;/b&gt;" style="rounded=0;whiteSpace=wrap;html=1;" vertex="1" parent="1">
          <mxGeometry x="692.5" y="660" width="280" height="40" as="geometry" />
        </mxCell>
        <mxCell id="jTnxG4hsWh08YRe22Vm3-80" style="edgeStyle=orthogonalEdgeStyle;rounded=0;orthogonalLoop=1;jettySize=auto;html=1;exitX=1;exitY=0.5;exitDx=0;exitDy=0;entryX=0;entryY=0.5;entryDx=0;entryDy=0;" edge="1" parent="1" source="jTnxG4hsWh08YRe22Vm3-66" target="jTnxG4hsWh08YRe22Vm3-69">
          <mxGeometry relative="1" as="geometry" />
        </mxCell>
        <mxCell id="jTnxG4hsWh08YRe22Vm3-66" value="&lt;b style=&quot;&quot;&gt;&lt;font style=&quot;font-size: 18px;&quot;&gt;CompromissoComFaculdade&lt;/font&gt;&lt;/b&gt;" style="rounded=0;whiteSpace=wrap;html=1;" vertex="1" parent="1">
          <mxGeometry x="692.5" y="729" width="280" height="40" as="geometry" />
        </mxCell>
        <mxCell id="jTnxG4hsWh08YRe22Vm3-68" style="edgeStyle=orthogonalEdgeStyle;rounded=0;orthogonalLoop=1;jettySize=auto;html=1;exitX=0.5;exitY=1;exitDx=0;exitDy=0;entryX=0.5;entryY=0;entryDx=0;entryDy=0;" edge="1" parent="1" source="jTnxG4hsWh08YRe22Vm3-69" target="jTnxG4hsWh08YRe22Vm3-71">
          <mxGeometry relative="1" as="geometry" />
        </mxCell>
        <mxCell id="jTnxG4hsWh08YRe22Vm3-69" value="&lt;font size=&quot;1&quot; style=&quot;&quot;&gt;&lt;b style=&quot;font-size: 18px;&quot;&gt;EngajamentoFaculdade&lt;/b&gt;&lt;/font&gt;" style="rounded=0;whiteSpace=wrap;html=1;" vertex="1" parent="1">
          <mxGeometry x="1017.5" y="351" width="280" height="40" as="geometry" />
        </mxCell>
        <mxCell id="jTnxG4hsWh08YRe22Vm3-70" style="edgeStyle=orthogonalEdgeStyle;rounded=0;orthogonalLoop=1;jettySize=auto;html=1;exitX=0.5;exitY=1;exitDx=0;exitDy=0;entryX=0.5;entryY=0;entryDx=0;entryDy=0;" edge="1" parent="1" source="jTnxG4hsWh08YRe22Vm3-71" target="jTnxG4hsWh08YRe22Vm3-73">
          <mxGeometry relative="1" as="geometry" />
        </mxCell>
        <mxCell id="jTnxG4hsWh08YRe22Vm3-71" value="&lt;span style=&quot;font-size: 18px;&quot;&gt;&lt;b&gt;InsegurancaFaculdade&lt;/b&gt;&lt;/span&gt;" style="rounded=0;whiteSpace=wrap;html=1;" vertex="1" parent="1">
          <mxGeometry x="1017.5" y="437" width="280" height="40" as="geometry" />
        </mxCell>
        <mxCell id="jTnxG4hsWh08YRe22Vm3-72" style="edgeStyle=orthogonalEdgeStyle;rounded=0;orthogonalLoop=1;jettySize=auto;html=1;exitX=0.5;exitY=1;exitDx=0;exitDy=0;" edge="1" parent="1" source="jTnxG4hsWh08YRe22Vm3-73" target="jTnxG4hsWh08YRe22Vm3-75">
          <mxGeometry relative="1" as="geometry" />
        </mxCell>
        <mxCell id="jTnxG4hsWh08YRe22Vm3-73" value="&lt;font size=&quot;1&quot; style=&quot;&quot;&gt;&lt;b style=&quot;font-size: 18px;&quot;&gt;InsegurançaCondicoesEstudo&lt;/b&gt;&lt;/font&gt;" style="rounded=0;whiteSpace=wrap;html=1;" vertex="1" parent="1">
          <mxGeometry x="1017.5" y="510" width="280" height="40" as="geometry" />
        </mxCell>
        <mxCell id="jTnxG4hsWh08YRe22Vm3-74" style="edgeStyle=orthogonalEdgeStyle;rounded=0;orthogonalLoop=1;jettySize=auto;html=1;exitX=0.5;exitY=1;exitDx=0;exitDy=0;entryX=0.5;entryY=0;entryDx=0;entryDy=0;" edge="1" parent="1" source="jTnxG4hsWh08YRe22Vm3-75" target="jTnxG4hsWh08YRe22Vm3-77">
          <mxGeometry relative="1" as="geometry" />
        </mxCell>
        <mxCell id="jTnxG4hsWh08YRe22Vm3-75" value="&lt;b style=&quot;&quot;&gt;&lt;font style=&quot;font-size: 18px;&quot;&gt;QualidadeDosTrabalhos&lt;/font&gt;&lt;/b&gt;" style="rounded=0;whiteSpace=wrap;html=1;" vertex="1" parent="1">
          <mxGeometry x="1017.5" y="579" width="280" height="40" as="geometry" />
        </mxCell>
        <mxCell id="jTnxG4hsWh08YRe22Vm3-76" style="edgeStyle=orthogonalEdgeStyle;rounded=0;orthogonalLoop=1;jettySize=auto;html=1;exitX=0.5;exitY=1;exitDx=0;exitDy=0;entryX=0.5;entryY=0;entryDx=0;entryDy=0;" edge="1" parent="1" source="jTnxG4hsWh08YRe22Vm3-77" target="jTnxG4hsWh08YRe22Vm3-78">
          <mxGeometry relative="1" as="geometry" />
        </mxCell>
        <mxCell id="jTnxG4hsWh08YRe22Vm3-77" value="&lt;b style=&quot;&quot;&gt;&lt;font style=&quot;font-size: 18px;&quot;&gt;SatisfacaoFaculdade&lt;/font&gt;&lt;/b&gt;" style="rounded=0;whiteSpace=wrap;html=1;" vertex="1" parent="1">
          <mxGeometry x="1017.5" y="660" width="280" height="40" as="geometry" />
        </mxCell>
        <mxCell id="jTnxG4hsWh08YRe22Vm3-78" value="&lt;b style=&quot;&quot;&gt;&lt;font style=&quot;font-size: 18px;&quot;&gt;ConflitoVidaUniversitaria&lt;/font&gt;&lt;/b&gt;" style="rounded=0;whiteSpace=wrap;html=1;" vertex="1" parent="1">
          <mxGeometry x="1017.5" y="729" width="280" height="40" as="geometry" />
        </mxCell>
        <mxCell id="jTnxG4hsWh08YRe22Vm3-81" style="edgeStyle=orthogonalEdgeStyle;rounded=0;orthogonalLoop=1;jettySize=auto;html=1;exitX=0.5;exitY=1;exitDx=0;exitDy=0;entryX=0.5;entryY=0;entryDx=0;entryDy=0;" edge="1" parent="1" source="jTnxG4hsWh08YRe22Vm3-82" target="jTnxG4hsWh08YRe22Vm3-84">
          <mxGeometry relative="1" as="geometry" />
        </mxCell>
        <mxCell id="jTnxG4hsWh08YRe22Vm3-82" value="&lt;font size=&quot;1&quot; style=&quot;&quot;&gt;&lt;b style=&quot;font-size: 18px;&quot;&gt;SaudeAutoavaliada&lt;/b&gt;&lt;/font&gt;" style="rounded=0;whiteSpace=wrap;html=1;" vertex="1" parent="1">
          <mxGeometry x="55" y="940" width="280" height="40" as="geometry" />
        </mxCell>
        <mxCell id="jTnxG4hsWh08YRe22Vm3-83" style="edgeStyle=orthogonalEdgeStyle;rounded=0;orthogonalLoop=1;jettySize=auto;html=1;exitX=0.5;exitY=1;exitDx=0;exitDy=0;entryX=0.5;entryY=0;entryDx=0;entryDy=0;" edge="1" parent="1" source="jTnxG4hsWh08YRe22Vm3-84" target="jTnxG4hsWh08YRe22Vm3-86">
          <mxGeometry relative="1" as="geometry" />
        </mxCell>
        <mxCell id="jTnxG4hsWh08YRe22Vm3-84" value="&lt;span style=&quot;font-size: 18px;&quot;&gt;&lt;b&gt;ProblemasDormir&lt;/b&gt;&lt;/span&gt;" style="rounded=0;whiteSpace=wrap;html=1;" vertex="1" parent="1">
          <mxGeometry x="55" y="1002" width="280" height="40" as="geometry" />
        </mxCell>
        <mxCell id="jTnxG4hsWh08YRe22Vm3-85" style="edgeStyle=orthogonalEdgeStyle;rounded=0;orthogonalLoop=1;jettySize=auto;html=1;exitX=0.5;exitY=1;exitDx=0;exitDy=0;" edge="1" parent="1" source="jTnxG4hsWh08YRe22Vm3-86" target="jTnxG4hsWh08YRe22Vm3-88">
          <mxGeometry relative="1" as="geometry" />
        </mxCell>
        <mxCell id="jTnxG4hsWh08YRe22Vm3-86" value="&lt;font size=&quot;1&quot; style=&quot;&quot;&gt;&lt;b style=&quot;font-size: 18px;&quot;&gt;Esgotamento&lt;/b&gt;&lt;/font&gt;" style="rounded=0;whiteSpace=wrap;html=1;" vertex="1" parent="1">
          <mxGeometry x="55" y="1066" width="280" height="40" as="geometry" />
        </mxCell>
        <mxCell id="jTnxG4hsWh08YRe22Vm3-87" style="edgeStyle=orthogonalEdgeStyle;rounded=0;orthogonalLoop=1;jettySize=auto;html=1;exitX=0.5;exitY=1;exitDx=0;exitDy=0;entryX=0.5;entryY=0;entryDx=0;entryDy=0;" edge="1" parent="1" source="jTnxG4hsWh08YRe22Vm3-88" target="jTnxG4hsWh08YRe22Vm3-90">
          <mxGeometry relative="1" as="geometry" />
        </mxCell>
        <mxCell id="jTnxG4hsWh08YRe22Vm3-88" value="&lt;b style=&quot;&quot;&gt;&lt;font style=&quot;font-size: 18px;&quot;&gt;Estresse&lt;/font&gt;&lt;/b&gt;" style="rounded=0;whiteSpace=wrap;html=1;" vertex="1" parent="1">
          <mxGeometry x="55" y="1128" width="280" height="40" as="geometry" />
        </mxCell>
        <mxCell id="jTnxG4hsWh08YRe22Vm3-89" style="edgeStyle=orthogonalEdgeStyle;rounded=0;orthogonalLoop=1;jettySize=auto;html=1;exitX=0.5;exitY=1;exitDx=0;exitDy=0;entryX=0.5;entryY=0;entryDx=0;entryDy=0;" edge="1" parent="1" source="jTnxG4hsWh08YRe22Vm3-90" target="jTnxG4hsWh08YRe22Vm3-92">
          <mxGeometry relative="1" as="geometry" />
        </mxCell>
        <mxCell id="jTnxG4hsWh08YRe22Vm3-90" value="&lt;b style=&quot;&quot;&gt;&lt;font style=&quot;font-size: 18px;&quot;&gt;EstresseSomatico&lt;/font&gt;&lt;/b&gt;" style="rounded=0;whiteSpace=wrap;html=1;" vertex="1" parent="1">
          <mxGeometry x="55" y="1190" width="280" height="40" as="geometry" />
        </mxCell>
        <mxCell id="jTnxG4hsWh08YRe22Vm3-91" style="edgeStyle=orthogonalEdgeStyle;rounded=0;orthogonalLoop=1;jettySize=auto;html=1;exitX=0.5;exitY=1;exitDx=0;exitDy=0;" edge="1" parent="1" source="jTnxG4hsWh08YRe22Vm3-92" target="jTnxG4hsWh08YRe22Vm3-93">
          <mxGeometry relative="1" as="geometry" />
        </mxCell>
        <mxCell id="jTnxG4hsWh08YRe22Vm3-92" value="&lt;b style=&quot;&quot;&gt;&lt;font style=&quot;font-size: 18px;&quot;&gt;EstresseCognifitivo&lt;/font&gt;&lt;/b&gt;" style="rounded=0;whiteSpace=wrap;html=1;" vertex="1" parent="1">
          <mxGeometry x="55" y="1252" width="280" height="40" as="geometry" />
        </mxCell>
        <mxCell id="jTnxG4hsWh08YRe22Vm3-95" value="" style="edgeStyle=orthogonalEdgeStyle;rounded=0;orthogonalLoop=1;jettySize=auto;html=1;" edge="1" parent="1" source="jTnxG4hsWh08YRe22Vm3-93" target="jTnxG4hsWh08YRe22Vm3-94">
          <mxGeometry relative="1" as="geometry" />
        </mxCell>
        <mxCell id="jTnxG4hsWh08YRe22Vm3-93" value="&lt;b style=&quot;&quot;&gt;&lt;font style=&quot;font-size: 18px;&quot;&gt;SintomasDepressivos&lt;/font&gt;&lt;/b&gt;" style="rounded=0;whiteSpace=wrap;html=1;" vertex="1" parent="1">
          <mxGeometry x="55" y="1316" width="280" height="40" as="geometry" />
        </mxCell>
        <mxCell id="jTnxG4hsWh08YRe22Vm3-94" value="&lt;b style=&quot;&quot;&gt;&lt;font style=&quot;font-size: 18px;&quot;&gt;AutoEficacia&lt;/font&gt;&lt;/b&gt;" style="rounded=0;whiteSpace=wrap;html=1;" vertex="1" parent="1">
          <mxGeometry x="55" y="1387" width="280" height="40" as="geometry" />
        </mxCell>
        <mxCell id="jTnxG4hsWh08YRe22Vm3-97" style="edgeStyle=orthogonalEdgeStyle;rounded=0;orthogonalLoop=1;jettySize=auto;html=1;exitX=0.5;exitY=1;exitDx=0;exitDy=0;entryX=0.5;entryY=0;entryDx=0;entryDy=0;" edge="1" parent="1" source="jTnxG4hsWh08YRe22Vm3-98" target="jTnxG4hsWh08YRe22Vm3-100">
          <mxGeometry relative="1" as="geometry" />
        </mxCell>
        <mxCell id="jTnxG4hsWh08YRe22Vm3-98" value="&lt;span style=&quot;font-size: 18px;&quot;&gt;&lt;b&gt;FofocasCalunias&lt;/b&gt;&lt;/span&gt;" style="rounded=0;whiteSpace=wrap;html=1;" vertex="1" parent="1">
          <mxGeometry x="535" y="940" width="280" height="40" as="geometry" />
        </mxCell>
        <mxCell id="jTnxG4hsWh08YRe22Vm3-99" style="edgeStyle=orthogonalEdgeStyle;rounded=0;orthogonalLoop=1;jettySize=auto;html=1;exitX=0.5;exitY=1;exitDx=0;exitDy=0;entryX=0.5;entryY=0;entryDx=0;entryDy=0;" edge="1" parent="1" source="jTnxG4hsWh08YRe22Vm3-100" target="jTnxG4hsWh08YRe22Vm3-102">
          <mxGeometry relative="1" as="geometry" />
        </mxCell>
        <mxCell id="jTnxG4hsWh08YRe22Vm3-100" value="&lt;font size=&quot;1&quot; style=&quot;&quot;&gt;&lt;b style=&quot;font-size: 18px;&quot;&gt;ConflitosBrigas&lt;/b&gt;&lt;/font&gt;" style="rounded=0;whiteSpace=wrap;html=1;" vertex="1" parent="1">
          <mxGeometry x="535" y="1002" width="280" height="40" as="geometry" />
        </mxCell>
        <mxCell id="jTnxG4hsWh08YRe22Vm3-101" style="edgeStyle=orthogonalEdgeStyle;rounded=0;orthogonalLoop=1;jettySize=auto;html=1;exitX=0.5;exitY=1;exitDx=0;exitDy=0;" edge="1" parent="1" source="jTnxG4hsWh08YRe22Vm3-102" target="jTnxG4hsWh08YRe22Vm3-104">
          <mxGeometry relative="1" as="geometry" />
        </mxCell>
        <mxCell id="jTnxG4hsWh08YRe22Vm3-102" value="&lt;font size=&quot;1&quot; style=&quot;&quot;&gt;&lt;b style=&quot;font-size: 18px;&quot;&gt;ProvocacaoDesagradavel&lt;/b&gt;&lt;/font&gt;" style="rounded=0;whiteSpace=wrap;html=1;" vertex="1" parent="1">
          <mxGeometry x="535" y="1066" width="280" height="40" as="geometry" />
        </mxCell>
        <mxCell id="jTnxG4hsWh08YRe22Vm3-103" style="edgeStyle=orthogonalEdgeStyle;rounded=0;orthogonalLoop=1;jettySize=auto;html=1;exitX=0.5;exitY=1;exitDx=0;exitDy=0;entryX=0.5;entryY=0;entryDx=0;entryDy=0;" edge="1" parent="1" source="jTnxG4hsWh08YRe22Vm3-104" target="jTnxG4hsWh08YRe22Vm3-106">
          <mxGeometry relative="1" as="geometry" />
        </mxCell>
        <mxCell id="jTnxG4hsWh08YRe22Vm3-104" value="&lt;b style=&quot;&quot;&gt;&lt;font style=&quot;font-size: 18px;&quot;&gt;Cyberbullying&lt;/font&gt;&lt;/b&gt;" style="rounded=0;whiteSpace=wrap;html=1;" vertex="1" parent="1">
          <mxGeometry x="535" y="1128" width="280" height="40" as="geometry" />
        </mxCell>
        <mxCell id="jTnxG4hsWh08YRe22Vm3-105" style="edgeStyle=orthogonalEdgeStyle;rounded=0;orthogonalLoop=1;jettySize=auto;html=1;exitX=0.5;exitY=1;exitDx=0;exitDy=0;entryX=0.5;entryY=0;entryDx=0;entryDy=0;" edge="1" parent="1" source="jTnxG4hsWh08YRe22Vm3-106" target="jTnxG4hsWh08YRe22Vm3-108">
          <mxGeometry relative="1" as="geometry" />
        </mxCell>
        <mxCell id="jTnxG4hsWh08YRe22Vm3-106" value="&lt;b style=&quot;&quot;&gt;&lt;font style=&quot;font-size: 18px;&quot;&gt;AssedioSexual&lt;/font&gt;&lt;/b&gt;" style="rounded=0;whiteSpace=wrap;html=1;" vertex="1" parent="1">
          <mxGeometry x="535" y="1190" width="280" height="40" as="geometry" />
        </mxCell>
        <mxCell id="jTnxG4hsWh08YRe22Vm3-107" style="edgeStyle=orthogonalEdgeStyle;rounded=0;orthogonalLoop=1;jettySize=auto;html=1;exitX=0.5;exitY=1;exitDx=0;exitDy=0;" edge="1" parent="1" source="jTnxG4hsWh08YRe22Vm3-108" target="jTnxG4hsWh08YRe22Vm3-110">
          <mxGeometry relative="1" as="geometry" />
        </mxCell>
        <mxCell id="jTnxG4hsWh08YRe22Vm3-108" value="&lt;b style=&quot;&quot;&gt;&lt;font style=&quot;font-size: 18px;&quot;&gt;AmeacasViolencia&lt;/font&gt;&lt;/b&gt;" style="rounded=0;whiteSpace=wrap;html=1;" vertex="1" parent="1">
          <mxGeometry x="535" y="1252" width="280" height="40" as="geometry" />
        </mxCell>
        <mxCell id="jTnxG4hsWh08YRe22Vm3-109" value="" style="edgeStyle=orthogonalEdgeStyle;rounded=0;orthogonalLoop=1;jettySize=auto;html=1;" edge="1" parent="1" source="jTnxG4hsWh08YRe22Vm3-110" target="jTnxG4hsWh08YRe22Vm3-111">
          <mxGeometry relative="1" as="geometry" />
        </mxCell>
        <mxCell id="jTnxG4hsWh08YRe22Vm3-110" value="&lt;b style=&quot;&quot;&gt;&lt;font style=&quot;font-size: 18px;&quot;&gt;ViolenciaFisica&lt;/font&gt;&lt;/b&gt;" style="rounded=0;whiteSpace=wrap;html=1;" vertex="1" parent="1">
          <mxGeometry x="535" y="1316" width="280" height="40" as="geometry" />
        </mxCell>
        <mxCell id="jTnxG4hsWh08YRe22Vm3-111" value="&lt;b style=&quot;&quot;&gt;&lt;font style=&quot;font-size: 18px;&quot;&gt;AssedioMoral&lt;/font&gt;&lt;/b&gt;" style="rounded=0;whiteSpace=wrap;html=1;" vertex="1" parent="1">
          <mxGeometry x="535" y="1387" width="280" height="40" as="geometry" />
        </mxCell>
        <mxCell id="jTnxG4hsWh08YRe22Vm3-112" style="edgeStyle=orthogonalEdgeStyle;rounded=0;orthogonalLoop=1;jettySize=auto;html=1;exitX=0.5;exitY=1;exitDx=0;exitDy=0;entryX=0.5;entryY=0;entryDx=0;entryDy=0;" edge="1" parent="1" source="jTnxG4hsWh08YRe22Vm3-113" target="jTnxG4hsWh08YRe22Vm3-115">
          <mxGeometry relative="1" as="geometry" />
        </mxCell>
        <mxCell id="jTnxG4hsWh08YRe22Vm3-113" value="&lt;span style=&quot;font-size: 18px;&quot;&gt;&lt;b&gt;ConfiancaHorizontal&lt;/b&gt;&lt;/span&gt;" style="rounded=0;whiteSpace=wrap;html=1;" vertex="1" parent="1">
          <mxGeometry x="1015" y="1064" width="280" height="40" as="geometry" />
        </mxCell>
        <mxCell id="jTnxG4hsWh08YRe22Vm3-114" style="edgeStyle=orthogonalEdgeStyle;rounded=0;orthogonalLoop=1;jettySize=auto;html=1;exitX=0.5;exitY=1;exitDx=0;exitDy=0;entryX=0.5;entryY=0;entryDx=0;entryDy=0;" edge="1" parent="1" source="jTnxG4hsWh08YRe22Vm3-115" target="jTnxG4hsWh08YRe22Vm3-116">
          <mxGeometry relative="1" as="geometry" />
        </mxCell>
        <mxCell id="jTnxG4hsWh08YRe22Vm3-115" value="&lt;font size=&quot;1&quot; style=&quot;&quot;&gt;&lt;b style=&quot;font-size: 18px;&quot;&gt;ConfiancaVertical&lt;/b&gt;&lt;/font&gt;" style="rounded=0;whiteSpace=wrap;html=1;" vertex="1" parent="1">
          <mxGeometry x="1015" y="1126" width="280" height="40" as="geometry" />
        </mxCell>
        <mxCell id="jTnxG4hsWh08YRe22Vm3-116" value="&lt;font size=&quot;1&quot; style=&quot;&quot;&gt;&lt;b style=&quot;font-size: 18px;&quot;&gt;JusticaOrganizacional&lt;/b&gt;&lt;/font&gt;" style="rounded=0;whiteSpace=wrap;html=1;" vertex="1" parent="1">
          <mxGeometry x="1015" y="1190" width="280" height="40" as="geometry" />
        </mxCell>
        <mxCell id="jTnxG4hsWh08YRe22Vm3-126" value="&lt;font style=&quot;font-size: 17px;&quot;&gt;Introdução à Justiça e Segurança&lt;/font&gt;" style="text;html=1;strokeColor=none;fillColor=none;align=center;verticalAlign=middle;whiteSpace=wrap;rounded=0;" vertex="1" parent="1">
          <mxGeometry x="1007.5" y="890" width="295" height="30" as="geometry" />
        </mxCell>
        <mxCell id="jTnxG4hsWh08YRe22Vm3-129" value="&lt;font style=&quot;font-size: 17px;&quot;&gt;Introdução Atos Negativos&lt;/font&gt;" style="text;html=1;strokeColor=none;fillColor=none;align=center;verticalAlign=middle;whiteSpace=wrap;rounded=0;" vertex="1" parent="1">
          <mxGeometry x="527.5" y="890" width="295" height="30" as="geometry" />
        </mxCell>
        <mxCell id="jTnxG4hsWh08YRe22Vm3-130" value="&lt;font style=&quot;font-size: 17px;&quot;&gt;Introdução à Saúde&lt;/font&gt;" style="text;html=1;strokeColor=none;fillColor=none;align=center;verticalAlign=middle;whiteSpace=wrap;rounded=0;" vertex="1" parent="1">
          <mxGeometry x="45" y="890" width="295" height="30" as="geometry" />
        </mxCell>
        <mxCell id="jTnxG4hsWh08YRe22Vm3-133" value="&lt;span style=&quot;font-size: 18px;&quot;&gt;Fim&lt;/span&gt;" style="ellipse;whiteSpace=wrap;html=1;fillColor=#f8cecc;strokeColor=#b85450;" vertex="1" parent="1">
          <mxGeometry x="135" y="1510" width="120" height="50" as="geometry" />
        </mxCell>
      </root>
    </mxGraphModel>
  </diagram>
</mxfile>
